<?xml version="1.0" standalone="no"?>
<!DOCTYPE svg PUBLIC "-//W3C//DTD SVG 20010904//EN"
 "http://www.w3.org/TR/2001/REC-SVG-20010904/DTD/svg10.dtd">
<svg version="1.0" xmlns="http://www.w3.org/2000/svg"
 width="640.000000pt" height="640.000000pt" viewBox="0 0 640.000000 640.000000"
 preserveAspectRatio="xMidYMid meet">

<g transform="translate(0.000000,640.000000) scale(0.100000,-0.100000)"
fill="#000000" stroke="none">
<path d="M2610 5335 c-78 -19 -125 -41 -202 -91 -116 -77 -206 -198 -250 -337
-29 -89 -28 -258 0 -347 51 -158 172 -298 321 -371 240 -118 515 -82 706 93
l66 60 82 -47 c114 -66 287 -202 287 -225 0 -4 -34 -33 -76 -65 -208 -156
-407 -392 -519 -615 -62 -123 -102 -237 -159 -457 -30 -114 -66 -241 -80 -282
-56 -161 -154 -306 -282 -415 -108 -93 -113 -94 -166 -59 -112 78 -218 113
-358 120 -77 4 -123 1 -174 -11 -198 -47 -362 -189 -437 -379 -28 -71 -33 -97
-37 -193 -2 -64 1 -135 8 -168 34 -166 178 -345 340 -424 47 -23 112 -49 145
-57 74 -19 223 -19 292 -1 213 57 394 237 449 447 23 86 22 234 -1 324 -13 49
-14 70 -6 73 27 9 161 103 210 148 179 162 279 366 371 764 86 370 192 571
425 805 87 87 246 215 267 215 2 0 119 -114 259 -252 140 -139 284 -275 320
-303 l66 -50 -5 -117 c-6 -135 7 -213 49 -306 80 -176 211 -294 399 -358 85
-29 262 -27 359 5 190 63 340 218 400 415 25 82 29 252 7 334 -47 174 -174
335 -327 412 -94 48 -163 64 -279 63 -155 0 -259 -41 -387 -149 l-52 -44 -91
76 c-51 43 -196 183 -323 313 -484 494 -594 594 -770 700 l-62 38 -6 124 c-10
193 -56 298 -188 430 -85 84 -179 137 -291 163 -79 19 -225 19 -300 1z"/>
</g>
</svg>
